<?xml version="1.0" standalone="no"?>
<!DOCTYPE svg PUBLIC "-//W3C//DTD SVG 20010904//EN"
 "http://www.w3.org/TR/2001/REC-SVG-20010904/DTD/svg10.dtd">
<svg version="1.0" xmlns="http://www.w3.org/2000/svg"
 width="173.000000pt" height="100.000000pt" viewBox="0 0 173.000000 100.000000"
 preserveAspectRatio="xMidYMid meet">

<g transform="translate(0.000000,100.000000) scale(0.100000,-0.100000)"
fill="#000000" stroke="none">
<path d="M0 500 l0 -500 865 0 865 0 0 500 0 500 -865 0 -865 0 0 -500z m917
267 c-13 -23 -57 -99 -97 -169 -40 -71 -79 -128 -86 -128 -8 0 -14 2 -14 5 0
6 139 247 177 308 33 52 51 37 20 -16z m43 -10 c0 -20 -155 -280 -170 -285
-19 -7 -9 15 77 166 70 122 93 152 93 119z m30 -50 c0 -7 -10 -28 -23 -47 -13
-19 -43 -70 -67 -112 -24 -43 -50 -78 -57 -78 -7 0 -13 2 -13 4 0 4 94 170
127 224 15 24 33 29 33 9z m-21 -137 c-46 -81 -72 -111 -83 -99 -2 2 23 50 57
107 39 67 63 100 70 93 6 -6 -9 -42 -44 -101z m114 -17 l45 -78 -90 -3 c-50
-1 -92 -1 -94 1 -5 5 79 156 88 157 3 0 26 -35 51 -77z m72 -133 c4 -6 1 -9
-7 -8 -10 2 -13 -14 -13 -65 0 -57 -3 -67 -17 -67 -15 0 -18 9 -18 57 0 67 33
118 55 83z m-757 -54 c8 -15 18 -41 22 -57 8 -26 6 -30 -8 -27 -9 2 -22 18
-28 36 -5 18 -13 29 -17 26 -4 -4 -7 7 -7 25 0 39 19 38 38 -3z m62 19 c0 -9
11 -20 25 -25 47 -18 23 -90 -25 -75 -17 5 -20 15 -20 61 0 30 5 54 10 54 6 0
10 -7 10 -15z m618 -44 c3 -55 -9 -82 -37 -80 -10 0 -11 2 -3 6 20 8 15 71 -8
83 -26 14 -26 30 0 23 12 -3 20 -2 19 3 -3 18 1 26 14 22 7 -3 13 -26 15 -57z
m342 39 c0 -13 7 -20 20 -20 16 0 20 -7 20 -34 0 -18 -6 -38 -13 -44 -10 -9
-12 -4 -9 22 2 19 -1 37 -7 40 -7 5 -11 -5 -11 -29 0 -62 -25 -36 -28 28 -2
46 0 57 13 57 8 0 15 -9 15 -20z m80 0 c0 -5 -4 -10 -10 -10 -5 0 -10 5 -10
10 0 6 5 10 10 10 6 0 10 -4 10 -10z m-1153 -26 c-9 -9 -28 6 -21 18 4 6 10 6
17 -1 6 -6 8 -13 4 -17z m486 -29 c2 -36 -1 -45 -13 -43 -19 4 -26 64 -9 84
16 20 21 13 22 -41z m-253 -3 c0 -36 -2 -39 -30 -40 -37 -1 -41 27 -7 52 l22
17 -24 -7 c-16 -4 -21 -3 -17 5 4 6 18 11 32 11 21 0 24 -4 24 -38z m205 4 c0
-36 -26 -56 -49 -37 -9 8 -16 25 -16 38 0 37 -24 23 -28 -16 -4 -41 -26 -36
-30 8 -4 39 -25 37 -32 -4 -8 -46 -30 -43 -30 4 l0 42 93 -3 92 -3 0 -29z
m179 1 c7 -34 1 -47 -20 -47 -8 0 -12 5 -9 10 11 18 -6 52 -23 45 -8 -3 -19 0
-24 7 -5 9 -8 5 -8 -12 0 -15 5 -31 12 -38 9 -9 9 -12 -3 -12 -33 0 -51 44
-28 67 6 6 31 11 54 11 40 -1 44 -4 49 -31z m216 9 c0 -14 5 -28 10 -31 6 -4
10 7 10 25 0 44 24 34 28 -11 3 -34 2 -35 -32 -36 -33 -1 -34 1 -38 38 -2 27
0 39 9 39 7 0 13 -11 13 -24z m120 -14 c0 -35 -2 -38 -27 -37 -35 0 -41 23
-12 47 l24 19 -24 -6 c-16 -5 -21 -4 -17 4 4 6 18 11 32 11 21 0 24 -4 24 -38z
m80 27 c0 -6 -6 -9 -14 -6 -21 8 -27 -17 -10 -42 15 -21 9 -26 -20 -15 -19 7
-22 60 -3 67 22 10 47 7 47 -4z m120 -29 c0 -22 -4 -40 -9 -40 -5 0 -11 18
-13 40 -2 28 0 40 9 40 8 0 13 -14 13 -40z m-1130 3 c0 -16 -35 -43 -54 -42
-18 1 -18 2 4 8 16 5 24 13 22 24 -2 10 4 17 13 17 8 0 15 -3 15 -7z"/>
<path d="M464 336 c-3 -8 -1 -23 5 -33 9 -15 10 -13 11 15 0 34 -7 42 -16 18z"/>
<path d="M545 310 c-3 -5 -1 -10 4 -10 6 0 11 5 11 10 0 6 -2 10 -4 10 -3 0
-8 -4 -11 -10z"/>
<path d="M746 341 c-4 -6 -4 -21 0 -33 6 -19 7 -19 16 -5 11 20 -5 57 -16 38z"/>
</g>
</svg>
